<svg width="360" height="640" viewBox="0 0 360 640" fill="none" xmlns="http://www.w3.org/2000/svg">
<g clip-path="url(#clip0_118_815)">
<rect width="360" height="640" fill="white"/>
<g filter="url(#filter0_f_118_815)">
<circle cx="90" cy="138" r="8" fill="#F28B04"/>
<circle cx="142" cy="328" r="8" fill="#F28B04"/>
<circle cx="134" cy="457" r="8" fill="#E22424"/>
<circle cx="52" cy="401" r="8" fill="#288E20"/>
<circle cx="74" cy="269" r="8" fill="#1470E8"/>
<circle cx="317" cy="47" r="8" fill="#1470E8"/>
<circle cx="264" cy="277" r="8" fill="#288E20"/>
<circle cx="188" cy="530" r="8" fill="#288E20"/>
<circle cx="301" cy="616" r="8" fill="#E22424"/>
<circle cx="150" cy="22" r="8" fill="#288E20"/>
<circle cx="36" cy="63" r="8" fill="#E22424"/>
<circle cx="229" cy="166" r="8" fill="#E22424"/>
<circle cx="333" cy="111" r="8" fill="#288E20"/>
<circle cx="290" cy="502" r="8" fill="#1470E8"/>
<circle cx="256" cy="401" r="8" fill="#288E20"/>
<circle cx="52" cy="584" r="8" fill="#F28B04"/>
<path fill-rule="evenodd" clip-rule="evenodd" d="M314.079 23.3753C350.649 29.1043 371.687 65.5035 400.388 88.8984C426.984 110.577 462.741 123.46 475.806 155.202C489.268 187.909 485.257 226.559 470.227 258.575C456.147 288.568 426.896 307.58 397.3 322.437C371.498 335.389 342.941 337.335 314.079 336.958C285.605 336.586 257.581 333.634 232.422 320.282C204.087 305.245 174.904 286.745 163.17 256.871C151.152 226.272 162.936 193.03 169.812 160.88C177.571 124.601 178.776 83.9726 205.62 58.3869C233.819 31.5099 275.608 17.3486 314.079 23.3753Z" fill="#6F36BC"/>
<path fill-rule="evenodd" clip-rule="evenodd" d="M228.306 271.059C282.824 274.674 331.342 292.649 369.244 319.283C406.231 345.273 431.323 378.19 431.986 414.184C432.658 450.613 408.572 484.145 372.785 511.47C334.192 540.937 286.385 573.469 228.306 569.701C171.948 566.045 141.584 525.653 109.219 494.372C84.2168 470.207 75.1879 443.163 67.3979 414.184C56.7781 374.677 20.5921 330.562 56.5801 298.552C93.498 265.714 167.435 267.023 228.306 271.059Z" fill="#009EAD"/>
<path fill-rule="evenodd" clip-rule="evenodd" d="M328.727 -17.8373C371.912 -15.5696 371.463 11.4578 400.57 24.8732C426.433 36.7937 485.61 38.619 485.998 54.6495C486.386 70.6572 431.96 74.9127 402.026 85.0295C377.425 93.344 359.54 104.64 328.727 107.803C287.778 112.006 234.871 118.219 207.169 105.032C179.418 91.8208 211.427 72.0089 217.071 54.6495C221.449 41.1833 218.398 27.6862 236.04 16.2334C259.141 1.23603 286.138 -20.0738 328.727 -17.8373Z" fill="#6BBA12"/>
<path fill-rule="evenodd" clip-rule="evenodd" d="M-9.263 -35.7367C60.2795 -32.0668 59.5557 11.6722 106.427 33.3826C148.076 52.6737 243.372 55.6276 243.997 81.5701C244.621 107.476 156.977 114.363 108.773 130.735C69.1569 144.19 40.3559 162.47 -9.263 167.589C-75.2053 174.391 -160.405 184.446 -205.014 163.105C-249.703 141.725 -198.157 109.663 -189.068 81.5701C-182.018 59.7775 -186.931 37.935 -158.522 19.4006C-121.321 -4.86994 -77.8471 -39.3561 -9.263 -35.7367Z" fill="#F79707"/>
<path fill-rule="evenodd" clip-rule="evenodd" d="M418.489 332.263C506.497 335.933 505.581 379.672 564.899 401.383C617.606 420.674 738.205 423.628 738.996 449.57C739.786 475.476 628.87 482.363 567.867 498.735C517.732 512.19 481.283 530.47 418.489 535.589C335.038 542.391 227.215 552.446 170.762 531.105C114.206 509.725 179.439 477.663 190.941 449.57C199.864 427.777 193.646 405.935 229.598 387.401C276.678 363.13 331.695 328.644 418.489 332.263Z" fill="#F79707"/>
<path fill-rule="evenodd" clip-rule="evenodd" d="M115.444 511.075C159.119 514.465 190.418 533.333 216.979 552.172C239.24 567.962 255.452 586.899 249.904 606.447C244.932 623.969 216.208 635.413 190.231 646.424C168.162 655.779 142.78 659.815 115.444 663.443C73.2631 669.041 26.2151 686.636 -8.74295 672.831C-43.8092 658.985 -26.9114 629.728 -28.8931 606.447C-31.0397 581.23 -50.2852 553.36 -20.5834 533.734C10.4692 513.216 66.5846 507.283 115.444 511.075Z" fill="#D82B39"/>
</g>
</g>
<defs>
<filter id="filter0_f_118_815" x="-373" y="-186" width="1262" height="1014" filterUnits="userSpaceOnUse" color-interpolation-filters="sRGB">
<feFlood flood-opacity="0" result="BackgroundImageFix"/>
<feBlend mode="normal" in="SourceGraphic" in2="BackgroundImageFix" result="shape"/>
<feGaussianBlur stdDeviation="75" result="effect1_foregroundBlur_118_815"/>
</filter>
<clipPath id="clip0_118_815">
<rect width="360" height="640" fill="white"/>
</clipPath>
</defs>
</svg>
